<svg width="512" height="272" viewBox="0 0 512 272" fill="none" xmlns="http://www.w3.org/2000/svg">
<path d="M384.505 185.921H356.177V263.425H384.505V185.921Z" fill="#BDB5A5"/>
<path d="M461.883 185.921H433.555V263.425H461.883V185.921Z" fill="#BDB5A5"/>
<path d="M155.816 185.921H127.488V263.425H155.816V185.921Z" fill="#BDB5A5"/>
<path d="M78.4519 185.921H50.1239V263.425H78.4519V185.921Z" fill="#BDB5A5"/>
<path d="M271.738 95.046H240.268V243.312H271.738V95.046Z" fill="#BDB5A5"/>
<path opacity="0.1" d="M240.266 160.061C245.229 161.659 250.512 162.534 256.001 162.534C261.49 162.534 266.773 161.66 271.736 160.061V95.045H240.266V160.061Z" fill="black"/>
<path d="M394.822 111.093C394.822 122.045 385.943 130.924 374.991 130.924C364.039 130.924 355.16 122.045 355.16 111.093C355.16 122.045 346.281 130.924 335.329 130.924C324.377 130.924 315.498 122.045 315.498 111.093C315.498 122.045 306.619 130.924 295.667 130.924C284.715 130.924 275.836 122.045 275.836 111.093C275.836 122.045 266.957 130.924 256.005 130.924C245.053 130.924 236.174 122.045 236.174 111.093C236.174 122.045 227.295 130.924 216.343 130.924C205.391 130.924 196.512 122.045 196.512 111.093C196.512 122.045 187.633 130.924 176.681 130.924C165.729 130.924 156.85 122.045 156.85 111.093C156.85 122.045 147.971 130.924 137.019 130.924C126.067 130.924 117.188 122.045 117.188 111.093V76.137H394.83V111.093H394.822V111.093Z" fill="#FFF735"/>
<path d="M289.302 227.614H222.697C202.918 227.614 186.884 243.648 186.884 263.427H325.114C325.115 243.648 309.081 227.614 289.302 227.614Z" fill="#DEDAD2"/>
<path opacity="0.1" d="M155.816 185.921H127.488V231.711H155.816V185.921Z" fill="black"/>
<path opacity="0.1" d="M78.4519 185.921H50.1239V231.711H78.4519V185.921Z" fill="black"/>
<path opacity="0.1" d="M384.505 185.921H356.177V231.711H384.505V185.921Z" fill="black"/>
<path opacity="0.1" d="M461.883 185.921H433.555V231.711H461.883V185.921Z" fill="black"/>
<path d="M82.6499 159.651H166.357V200.1H50.1239L7.90186 7.90302H49.3149L82.6499 159.651Z" fill="#FFF735"/>
<path d="M429.35 159.651H345.643V200.1H461.877L504.098 7.90302H462.685L429.35 159.651Z" fill="#FFF735"/>
<path d="M316.21 84.039C320.575 84.039 324.112 80.501 324.112 76.137C324.112 71.773 320.575 68.235 316.21 68.235H117.18C112.815 68.235 109.278 71.773 109.278 76.137V111.093C109.278 126.385 121.72 138.826 137.011 138.826C144.775 138.826 151.804 135.62 156.842 130.461C161.88 135.62 168.909 138.826 176.673 138.826C184.437 138.826 191.466 135.62 196.504 130.461C201.542 135.62 208.571 138.826 216.335 138.826C222.303 138.826 227.831 136.926 232.361 133.708V219.711H222.696C198.591 219.711 178.981 239.321 178.981 263.426C178.981 267.79 182.518 271.328 186.883 271.328H325.113C329.478 271.328 333.015 267.79 333.015 263.426C333.015 239.321 313.405 219.711 289.3 219.711H279.634V133.707C284.164 136.927 289.693 138.827 295.661 138.827C303.425 138.827 310.454 135.621 315.492 130.462C320.53 135.621 327.559 138.827 335.323 138.827C343.087 138.827 350.116 135.621 355.154 130.462C360.192 135.621 367.221 138.827 374.985 138.827C390.277 138.827 402.718 126.386 402.718 111.094V76.138C402.718 71.774 399.181 68.236 394.816 68.236H347.814C343.449 68.236 339.912 71.774 339.912 76.138C339.912 80.502 343.449 84.04 347.814 84.04H386.914V111.094C386.914 117.672 381.563 123.023 374.985 123.023C368.407 123.023 363.056 117.672 363.056 111.094C363.056 106.73 359.519 103.192 355.154 103.192C350.789 103.192 347.252 106.73 347.252 111.094C347.252 117.672 341.901 123.023 335.323 123.023C328.745 123.023 323.394 117.672 323.394 111.094C323.394 106.73 319.857 103.192 315.492 103.192C311.127 103.192 307.59 106.73 307.59 111.094C307.59 117.672 302.239 123.023 295.661 123.023C289.083 123.023 283.732 117.672 283.732 111.094C283.732 106.73 280.195 103.192 275.83 103.192C271.465 103.192 267.928 106.73 267.928 111.094C267.928 113.804 267.009 116.297 265.481 118.303C265.475 118.311 265.466 118.318 265.46 118.325C263.234 121.232 259.665 123.023 255.998 123.023C252.367 123.023 248.701 121.263 246.522 118.31C244.99 116.304 244.069 113.807 244.069 111.093C244.069 106.729 240.532 103.191 236.167 103.191C231.802 103.191 228.265 106.729 228.265 111.093C228.265 117.671 222.914 123.022 216.336 123.022C209.758 123.022 204.407 117.671 204.407 111.093C204.407 106.729 200.87 103.191 196.505 103.191C192.14 103.191 188.603 106.729 188.603 111.093C188.603 117.671 183.252 123.022 176.674 123.022C170.096 123.022 164.745 117.671 164.745 111.093C164.745 106.729 161.208 103.191 156.843 103.191C152.478 103.191 148.941 106.729 148.941 111.093C148.941 117.671 143.59 123.022 137.012 123.022C130.434 123.022 125.083 117.671 125.083 111.093V84.039H316.21V84.039ZM248.167 137.709C250.7 138.452 253.355 138.825 256.001 138.826C258.643 138.826 261.297 138.449 263.834 137.709V219.71H248.169V137.709H248.167V137.709ZM240.26 235.516C240.262 235.516 240.263 235.516 240.263 235.516H271.735H271.74H289.303C301.95 235.516 312.659 243.97 316.074 255.524H195.926C199.342 243.97 210.051 235.516 222.697 235.516H240.26Z" fill="black"/>
<path d="M42.2209 200.956V263.426C42.2209 267.79 45.7579 271.328 50.1229 271.328H78.4519C82.8169 271.328 86.3539 267.79 86.3539 263.426V208.001H119.592V263.426C119.592 267.79 123.129 271.328 127.494 271.328H155.822C160.187 271.328 163.724 267.79 163.724 263.426V208.001H166.358C170.723 208.001 174.26 204.463 174.26 200.099V159.65C174.26 155.286 170.723 151.748 166.358 151.748H89.0049L73.2509 80.029C72.3139 75.767 68.1059 73.068 63.8369 74.006C59.5749 74.943 56.8789 79.157 57.8139 83.42L74.9309 161.346C75.7279 164.97 78.9379 167.553 82.6489 167.553H158.454V192.197H56.4769L17.7279 15.805H42.9589L50.8699 51.81C51.8069 56.072 56.0179 58.77 60.2839 57.833C64.5469 56.896 67.2419 52.682 66.3069 48.419L57.0329 6.207C56.2359 2.583 53.0259 0 49.3149 0H7.90188C5.50888 0 3.24388 1.085 1.74388 2.95C0.243876 4.816 -0.330124 7.25901 0.184876 9.59801L42.2209 200.956ZM135.396 208.002H147.919V255.525H135.396V208.002ZM58.0249 208.002H70.5499V255.525H58.0249V208.002Z" fill="black"/>
<path d="M471.578 155.94C475.841 156.877 480.055 154.18 480.992 149.917L511.817 9.59801C512.33 7.26001 511.757 4.816 510.258 2.95C508.758 1.085 506.493 0 504.1 0H462.686C458.975 0 455.765 2.582 454.968 6.207L422.996 151.747H345.644C341.279 151.747 337.742 155.285 337.742 159.649V200.098C337.742 204.462 341.279 208 345.644 208H348.278V263.425C348.278 267.789 351.815 271.327 356.18 271.327H384.508C388.873 271.327 392.41 267.789 392.41 263.425V208H425.648V263.425C425.648 267.789 429.185 271.327 433.55 271.327H461.879C466.244 271.327 469.781 267.789 469.781 263.425V200.957L474.098 181.305C475.035 177.043 472.337 172.829 468.074 171.892C463.805 170.954 459.598 173.653 458.661 177.914L455.523 192.198H353.546V167.554H429.35C433.061 167.554 436.271 164.972 437.068 161.347L469.04 15.806H494.272L465.556 146.527C464.62 150.789 467.315 155.004 471.578 155.94ZM441.451 208.002H453.975V255.525H441.451V208.002ZM364.082 208.002H376.605V255.525H364.082V208.002Z" fill="black"/>
<path d="M384.505 185.921H356.177V263.425H384.505V185.921Z" fill="#BDB5A5"/>
<path d="M461.883 185.921H433.555V263.425H461.883V185.921Z" fill="#BDB5A5"/>
<path d="M155.816 185.921H127.488V263.425H155.816V185.921Z" fill="#BDB5A5"/>
<path d="M78.4519 185.921H50.1239V263.425H78.4519V185.921Z" fill="#BDB5A5"/>
<path d="M271.738 95.046H240.268V243.312H271.738V95.046Z" fill="#BDB5A5"/>
<path opacity="0.1" d="M240.266 160.061C245.229 161.659 250.512 162.534 256.001 162.534C261.49 162.534 266.773 161.66 271.736 160.061V95.045H240.266V160.061Z" fill="black"/>
<path d="M394.822 111.093C394.822 122.045 385.943 130.924 374.991 130.924C364.039 130.924 355.16 122.045 355.16 111.093C355.16 122.045 346.281 130.924 335.329 130.924C324.377 130.924 315.498 122.045 315.498 111.093C315.498 122.045 306.619 130.924 295.667 130.924C284.715 130.924 275.836 122.045 275.836 111.093C275.836 122.045 266.957 130.924 256.005 130.924C245.053 130.924 236.174 122.045 236.174 111.093C236.174 122.045 227.295 130.924 216.343 130.924C205.391 130.924 196.512 122.045 196.512 111.093C196.512 122.045 187.633 130.924 176.681 130.924C165.729 130.924 156.85 122.045 156.85 111.093C156.85 122.045 147.971 130.924 137.019 130.924C126.067 130.924 117.188 122.045 117.188 111.093V76.137H394.83V111.093H394.822V111.093Z" fill="#FFF735"/>
<path d="M289.302 227.614H222.697C202.918 227.614 186.884 243.648 186.884 263.427H325.114C325.115 243.648 309.081 227.614 289.302 227.614Z" fill="#DEDAD2"/>
<path opacity="0.1" d="M155.816 185.921H127.488V231.711H155.816V185.921Z" fill="black"/>
<path opacity="0.1" d="M78.4519 185.921H50.1239V231.711H78.4519V185.921Z" fill="black"/>
<path opacity="0.1" d="M384.505 185.921H356.177V231.711H384.505V185.921Z" fill="black"/>
<path opacity="0.1" d="M461.883 185.921H433.555V231.711H461.883V185.921Z" fill="black"/>
<path d="M82.6499 159.651H166.357V200.1H50.1239L7.90186 7.90302H49.3149L82.6499 159.651Z" fill="#FFF735"/>
<path d="M429.35 159.651H345.643V200.1H461.877L504.098 7.90302H462.685L429.35 159.651Z" fill="#FFF735"/>
<path d="M316.21 84.039C320.575 84.039 324.112 80.501 324.112 76.137C324.112 71.773 320.575 68.235 316.21 68.235H117.18C112.815 68.235 109.278 71.773 109.278 76.137V111.093C109.278 126.385 121.72 138.826 137.011 138.826C144.775 138.826 151.804 135.62 156.842 130.461C161.88 135.62 168.909 138.826 176.673 138.826C184.437 138.826 191.466 135.62 196.504 130.461C201.542 135.62 208.571 138.826 216.335 138.826C222.303 138.826 227.831 136.926 232.361 133.708V219.711H222.696C198.591 219.711 178.981 239.321 178.981 263.426C178.981 267.79 182.518 271.328 186.883 271.328H325.113C329.478 271.328 333.015 267.79 333.015 263.426C333.015 239.321 313.405 219.711 289.3 219.711H279.634V133.707C284.164 136.927 289.693 138.827 295.661 138.827C303.425 138.827 310.454 135.621 315.492 130.462C320.53 135.621 327.559 138.827 335.323 138.827C343.087 138.827 350.116 135.621 355.154 130.462C360.192 135.621 367.221 138.827 374.985 138.827C390.277 138.827 402.718 126.386 402.718 111.094V76.138C402.718 71.774 399.181 68.236 394.816 68.236H347.814C343.449 68.236 339.912 71.774 339.912 76.138C339.912 80.502 343.449 84.04 347.814 84.04H386.914V111.094C386.914 117.672 381.563 123.023 374.985 123.023C368.407 123.023 363.056 117.672 363.056 111.094C363.056 106.73 359.519 103.192 355.154 103.192C350.789 103.192 347.252 106.73 347.252 111.094C347.252 117.672 341.901 123.023 335.323 123.023C328.745 123.023 323.394 117.672 323.394 111.094C323.394 106.73 319.857 103.192 315.492 103.192C311.127 103.192 307.59 106.73 307.59 111.094C307.59 117.672 302.239 123.023 295.661 123.023C289.083 123.023 283.732 117.672 283.732 111.094C283.732 106.73 280.195 103.192 275.83 103.192C271.465 103.192 267.928 106.73 267.928 111.094C267.928 113.804 267.009 116.297 265.481 118.303C265.475 118.311 265.466 118.318 265.46 118.325C263.234 121.232 259.665 123.023 255.998 123.023C252.367 123.023 248.701 121.263 246.522 118.31C244.99 116.304 244.069 113.807 244.069 111.093C244.069 106.729 240.532 103.191 236.167 103.191C231.802 103.191 228.265 106.729 228.265 111.093C228.265 117.671 222.914 123.022 216.336 123.022C209.758 123.022 204.407 117.671 204.407 111.093C204.407 106.729 200.87 103.191 196.505 103.191C192.14 103.191 188.603 106.729 188.603 111.093C188.603 117.671 183.252 123.022 176.674 123.022C170.096 123.022 164.745 117.671 164.745 111.093C164.745 106.729 161.208 103.191 156.843 103.191C152.478 103.191 148.941 106.729 148.941 111.093C148.941 117.671 143.59 123.022 137.012 123.022C130.434 123.022 125.083 117.671 125.083 111.093V84.039H316.21V84.039ZM248.167 137.709C250.7 138.452 253.355 138.825 256.001 138.826C258.643 138.826 261.297 138.449 263.834 137.709V219.71H248.169V137.709H248.167V137.709ZM240.26 235.516C240.262 235.516 240.263 235.516 240.263 235.516H271.735H271.74H289.303C301.95 235.516 312.659 243.97 316.074 255.524H195.926C199.342 243.97 210.051 235.516 222.697 235.516H240.26Z" fill="black"/>
<path d="M42.2209 200.956V263.426C42.2209 267.79 45.7579 271.328 50.1229 271.328H78.4519C82.8169 271.328 86.3539 267.79 86.3539 263.426V208.001H119.592V263.426C119.592 267.79 123.129 271.328 127.494 271.328H155.822C160.187 271.328 163.724 267.79 163.724 263.426V208.001H166.358C170.723 208.001 174.26 204.463 174.26 200.099V159.65C174.26 155.286 170.723 151.748 166.358 151.748H89.0049L73.2509 80.029C72.3139 75.767 68.1059 73.068 63.8369 74.006C59.5749 74.943 56.8789 79.157 57.8139 83.42L74.9309 161.346C75.7279 164.97 78.9379 167.553 82.6489 167.553H158.454V192.197H56.4769L17.7279 15.805H42.9589L50.8699 51.81C51.8069 56.072 56.0179 58.77 60.2839 57.833C64.5469 56.896 67.2419 52.682 66.3069 48.419L57.0329 6.207C56.2359 2.583 53.0259 0 49.3149 0H7.90188C5.50888 0 3.24388 1.085 1.74388 2.95C0.243876 4.816 -0.330124 7.25901 0.184876 9.59801L42.2209 200.956ZM135.396 208.002H147.919V255.525H135.396V208.002ZM58.0249 208.002H70.5499V255.525H58.0249V208.002Z" fill="black"/>
<path d="M471.578 155.94C475.841 156.877 480.055 154.18 480.992 149.917L511.817 9.59801C512.33 7.26001 511.757 4.816 510.258 2.95C508.758 1.085 506.493 0 504.1 0H462.686C458.975 0 455.765 2.582 454.968 6.207L422.996 151.747H345.644C341.279 151.747 337.742 155.285 337.742 159.649V200.098C337.742 204.462 341.279 208 345.644 208H348.278V263.425C348.278 267.789 351.815 271.327 356.18 271.327H384.508C388.873 271.327 392.41 267.789 392.41 263.425V208H425.648V263.425C425.648 267.789 429.185 271.327 433.55 271.327H461.879C466.244 271.327 469.781 267.789 469.781 263.425V200.957L474.098 181.305C475.035 177.043 472.337 172.829 468.074 171.892C463.805 170.954 459.598 173.653 458.661 177.914L455.523 192.198H353.546V167.554H429.35C433.061 167.554 436.271 164.972 437.068 161.347L469.04 15.806H494.272L465.556 146.527C464.62 150.789 467.315 155.004 471.578 155.94ZM441.451 208.002H453.975V255.525H441.451V208.002ZM364.082 208.002H376.605V255.525H364.082V208.002Z" fill="black"/>
</svg>
